<?xml version="1.0" encoding="utf-8"?>
<!-- Generator: Adobe Illustrator 24.0.2, SVG Export Plug-In . SVG Version: 6.00 Build 0)  -->
<svg version="1.1" id="Layer_1" xmlns="http://www.w3.org/2000/svg" xmlns:xlink="http://www.w3.org/1999/xlink" x="0px" y="0px"
	 viewBox="0 0 260 155" style="enable-background:new 0 0 260 155;" xml:space="preserve">
<style type="text/css">
	.st0{fill:#CE2559;}
	.st1{fill:#EF6282;}
	.st2{fill:#CE295C;}
	.st3{fill:#CE275A;}
</style>
<g id="Layer_8">
	<g>
		<g>
			<path class="st0" d="M248.51,153.5c-4.44-4.35-9.05-8.58-13.28-13.09c-5.07-5.42-11.73-6.03-18.67-4.9
				c-9.09,1.47-16.89-0.48-24.4-5.02c-11.4-6.88-22.49-14.5-36.07-17.75c-22.25-5.32-44.88-8.69-67.68-3.43
				c-9.81,2.26-18.99,6.67-28.46,10.11c-1.51,0.54-3.01,1.09-4.5,1.65c2.23-1.95,4.18-4.25,6.72-5.76
				c12.51-7.46,25.94-13.28,40.24-17.54c14.77-4.4,29.44-9.01,45.48-7.84c6.05,0.44,12.19-0.04,18.29,0.18
				c12.16,0.43,23.89,2.72,34.3,8.44c6.62,3.63,12.62,8.15,18.9,12.28c1.62,7.22,6.91,12.03,13.42,16
				c5.37,3.28,10.62,6.73,16.16,9.76c4.76,2.61,8.66,5.67,10.28,10.57c0,2.12,0,4.23,0,6.35C255.66,153.5,252.09,153.5,248.51,153.5
				z"/>
			<path class="st1" d="M219.39,110.81c-6.27-4.13-12.27-8.65-18.9-12.28c-10.42-5.72-22.15-8-34.3-8.44
				c-6.08-0.22-12.22,0.27-18.29-0.18c-16.04-1.17-30.71,3.43-45.48,7.84c-14.31,4.26-27.73,10.08-40.24,17.54
				c-2.54,1.52-4.49,3.83-6.72,5.76l0.03-0.07c-0.62,0.29-1.24,0.58-1.86,0.86c-10.29,6.92-20.52,13.9-30.91,20.7
				c-3.57,2.34-7.32,4.63-11.36,6.19c-2.55,0.98-5.99,1.2-8.67,0.56c-1.98-0.48-2.24-7.44-0.3-9.54c4.9-5.28,9.58-10.88,15.33-15.33
				c12.21-9.43,25.07-18.21,37.66-27.25c9.12-1.52,16.02-13.29,11.6-20.39c-1.13-1.82-3.76-3.79-5.94-4.03
				c-7.26-0.8-14.35,0.08-21.18,2.98c-4.34,1.84-9.19,2.74-13.8,4.07c0.02-3.08-0.75-6.36,0.21-9.19c2.86-8.4,7.36-16.16,14.3-22.58
				c6.98-6.47,15.44-9.28,25.48-7.43c3.66,0.67,6.29-0.42,8.84-2.55c10.19-8.51,20.35-17.02,30.7-25.37
				c13.97-11.28,30.05-13.64,47.69-8.17c2.25,0.7,4.12,2.36,6.17,3.57c-6.37,0.22-12.83-0.08-19.09,0.78
				c-11.99,1.66-20.96,8.29-29.23,15.62c-1.85,1.63-2.87,3.99-4.27,6.02c0.37,0.38,0.75,0.77,1.12,1.15
				c9.79-2.35,18.73-6.61,27.78-10.61c1.53,0.17,3.1,0.63,4.58,0.46c19.46-2.17,28.78,9.55,31.94,21.41
				c1.29,4.81-4.1,7.64-10.59,5.81c-2.15-2.12-3.95-4.68-6.52-6.3c-10.03-6.34-21.51-7.66-33.52-7.15
				c-12.13,0.51-21.57,5.39-28.93,13.6c-1.11,1.24-0.64,3.57-0.91,5.41c-2.32,9.74,0.15,11.86,10.62,8.82
				c15.15-4.4,30.31-8.39,46.58-8c23.27,0.57,42.07,9.21,57.58,24.12c2.05,1.97,3.52,2.65,6.32,0.8c6.35-4.2,12.33-2.4,15.06,4.23
				c2.78,6.75,0.06,13.15-6.96,16.97c-0.98,0.53-1.8,1.93-1.9,2.99C218.94,106.35,219.27,108.59,219.39,110.81z"/>
			<path class="st2" d="M91.86,54.24c0.26-1.83-0.2-4.17,0.91-5.41c7.36-8.21,16.8-13.09,28.93-13.6
				c12.01-0.51,23.5,0.81,33.52,7.15c2.56,1.62,4.37,4.17,6.52,6.3c-3.05-0.35-6.22-0.32-9.11-1.1c-11.5-3.12-23.06-5.92-35.25-5.11
				C107.01,43.16,98.24,46.7,91.86,54.24z"/>
			<path class="st3" d="M26.11,79.79c4.62-1.32,9.46-2.23,13.8-4.07c6.82-2.89,13.91-3.78,21.18-2.98c2.17,0.24,4.81,2.22,5.94,4.03
				c4.41,7.1-2.48,18.88-11.6,20.39c1.31-1.59,2.68-3.14,3.92-4.76c2.94-3.87,1.61-6.65-3.65-7.1c-7.69-0.66-15.45-0.76-23.09-1.68
				C30.28,83.35,28.26,81.13,26.11,79.79z"/>
			<path class="st3" d="M135.79,21c-9.05,4.01-17.99,8.26-27.78,10.61c-0.37-0.38-0.75-0.77-1.12-1.15c1.4-2.02,2.43-4.39,4.27-6.02
				c8.28-7.33,17.25-13.96,29.23-15.62c6.25-0.86,12.72-0.55,19.09-0.78c1.93,2.56,0.24,3.9-2.23,4.77
				c-5.2,1.84-10.48,3.5-15.66,5.38C139.57,18.94,137.72,20.06,135.79,21z"/>
			<path class="st0" d="M53.63,121.85c0.62-0.29,1.24-0.58,1.86-0.86C54.87,121.28,54.26,121.56,53.63,121.85z"/>
		</g>
	</g>
</g>
</svg>
