<?xml version="1.0" encoding="utf-8"?>
<!-- Generator: Adobe Illustrator 23.0.2, SVG Export Plug-In . SVG Version: 6.00 Build 0)  -->
<svg version="1.1" xmlns="http://www.w3.org/2000/svg" xmlns:xlink="http://www.w3.org/1999/xlink" x="0px" y="0px"
	 viewBox="0 0 1000 1000" style="enable-background:new 0 0 1000 1000;" xml:space="preserve">
<style type="text/css">
	.st0{fill:#EF607F;}
	.st1{fill:#CE2459;}
	.st2{fill:none;}
	.st3{display:none;}
	.st4{fill:#CE2559;}
	.st5{fill:#EF6282;}
	.st6{fill:#CE295C;}
	.st7{fill:#CE275A;}
	.st8{display:inline;}
	.st9{fill:#FEFEFE;}
	.st10{fill:#F06383;}
	.st11{fill:#EF6080;}
	.st12{fill:#CE2458;}
	.st13{fill:#EF5F7F;}
	.st14{fill:#CD2357;}
	.st15{fill:#CD2257;}
	.st16{fill:#CE2659;}
	.st17{fill:#D74F78;}
	.st18{fill:#D13565;}
	.st19{fill:#D23868;}
	.st20{fill:#E24870;}
	.st21{fill:#FEFCFD;}
</style>
<g id="Layer_2">
	<path class="st0" d="M367.5,545.5c2.23-1.17,6.59-3.84,10-9c0.77-1.17,3.01-4.76,4-10c0.51-2.73,1.92-10.89-3-19
		c-0.64-1.05-5.13-8.21-14-11c-1.99-0.62-3.73-0.88-5-1h-47l1,85h22l1-31h8l7.79,17.24l6.09,13.49l0.12,0.26h25L367.5,545.5z
		 M358.23,522.47c-0.24,4.45-4.31,7.11-8.51,7.23c-0.01,0-0.02,0-0.03,0h-13.04c-0.83,0.16-1.8-0.3-1.8-1.38V515.3
		c0-1.09,0.97-1.55,1.79-1.38h12.95c0.01,0,0.02,0,0.04,0.01c0,0,0,0,0.01,0c0.03,0,0.05,0.01,0.07,0.01c0.01,0,0.01,0,0.02,0
		c0.02,0,0.04,0.01,0.06,0.01c0.09,0.01,0.18,0.02,0.26,0.04c0.01,0,0.01,0,0.02,0c0.09,0.01,0.18,0.02,0.26,0.04c0,0,0,0,0,0
		c0.02,0,0.04,0,0.06,0.01l0.51,0.11c0.02,0,0.04,0.01,0.07,0.02c1.92,0.43,3.94,0.99,5.23,2.55
		C357.56,518.35,358.34,520.34,358.23,522.47z"/>
	<path class="st1" d="M313.37,569.56l0.13,10.69l0.16,0.24l21.85-0.07l0.5-15.55c-3.8,0.54-7.81,1.24-12,2.12
		C320.26,567.79,316.71,568.65,313.37,569.56z"/>
	<polygon class="st1" points="358.42,580.32 354.6,571.87 350.02,561.73 	"/>
	<path class="st1" d="M359.04,580.5h24.06l0.11-0.63l-11.49-25.14c-1.86,0.37-3.77,0.79-5.72,1.27c-5.93,1.45-11.36,3.21-16.26,5.1
		c2.88,6.38,5.76,12.76,8.64,19.14L359.04,580.5z"/>
	<path class="st2" d="M358.22,522.57c-0.29,4.39-4.33,7.01-8.5,7.13c-0.01,0-0.02,0-0.03,0h-13.04c-0.21,0.04-0.43,0.04-0.64,0v1.3
		h16c0.85-0.15,2.55-0.59,4-2C358.09,526.98,358.32,524.27,358.22,522.57z"/>
	<path class="st2" d="M297,503"/>
	<path class="st2" d="M336.97,529.9c4.49-0.64,9.04,0.58,13.53-0.18"/>
</g>
<g id="Layer_7" class="st3">
</g>
<g id="Layer_3">
	<polygon class="st0" points="396,495 395,581 459,581 459,560 419,560 419,548 452,548 452,528 420,528 420,515 458,515 458,495 	
		"/>
	<path class="st1" d="M395.37,549.51L395,581h64v-21h-40v-12h33c0-2.67,0-5.33,0-8c-6.58,0.92-13.25,1.92-20,3
		C419.44,545.01,407.23,547.19,395.37,549.51z"/>
</g>
<g id="Layer_4">
	<path class="st0" d="M524,496v37.74c0,0.04,0.01,0.07,0.01,0.11c0,0.02-0.01,0.03-0.01,0.05v0.46c0.01,0.06,0.01,0.11,0,0.17V536
		l-0.93-1.27c-0.06-0.04-0.11-0.1-0.14-0.17c-0.02-0.03-0.04-0.06-0.05-0.09l-0.11-0.15c-0.06-0.04-0.11-0.1-0.15-0.18
		c-0.01-0.02-0.01-0.04-0.02-0.06l-0.08-0.11c-0.3-0.36-0.58-0.75-0.84-1.15l-0.39-0.53c-0.02-0.03-0.04-0.06-0.07-0.09
		c-0.02-0.03-0.03-0.05-0.05-0.07L494,495h-21v86h22v-40l31,40h19v-85H524z"/>
	<path class="st1" d="M523.97,532.39c0.01,0.03,0.02,0.06,0.02,0.1c0,0.1-0.01,0.19-0.02,0.29c0.01,0.03,0.02,0.05,0.02,0.08
		c0.01,0.47-0.02,0.94-0.01,1.41c0.19,0.53-0.56,0.97-0.85,0.49c-0.08-0.04-0.15-0.1-0.2-0.2c-0.06-0.11-0.12-0.22-0.18-0.33
		c-0.02-0.01-0.03-0.02-0.05-0.03c-0.4-0.44-0.76-0.96-1.09-1.47c-0.13-0.17-0.25-0.34-0.38-0.51c-0.1-0.13-0.18-0.24-0.22-0.36
		c-7.68-1.29-16.44-1.85-26-0.85c-8.57,0.9-15.97,2.86-22,5v45h22v-40l31,40h19c0-14.67,0-29.33,0-44c-2.51-1.08-5.53-2.15-9-3
		C531.42,532.88,527.31,532.48,523.97,532.39z"/>
	<path class="st1" d="M506,520"/>
</g>
<g id="Layer_5">
	<polygon class="st0" points="556,495 556,517 580,517 580,581 604,581 603,517 627,517 627,495 	"/>
	<path class="st1" d="M580,547c0,11.33,0,22.67,0,34h24l-0.39-25.26c-0.53-0.25-1.07-0.5-1.61-0.74
		C594.6,551.63,587.23,549.01,580,547z"/>
</g>
<g id="Layer_6">
	<polygon class="st0" points="632,495 657,495 672,524 687,495 712,495 684,547 684,581 660,581 660,546 	"/>
	<polygon class="st1" points="660,573 660,581 668.83,581 	"/>
</g>
<g id="Layer_8">
	<g>
		<g>
			<path class="st4" d="M624.79,484.91c-4.21-4.65-8.58-9.17-12.59-13.99c-4.81-5.79-11.12-6.44-17.7-5.24
				c-8.62,1.57-16.02-0.51-23.14-5.36c-10.81-7.35-21.33-15.49-34.2-18.97c-21.1-5.69-42.56-9.29-64.18-3.66
				c-9.3,2.42-18.01,7.13-26.99,10.8c-1.43,0.58-2.85,1.17-4.27,1.76c2.11-2.08,3.96-4.54,6.37-6.16
				c11.86-7.97,24.6-14.19,38.16-18.74c14.01-4.7,27.92-9.63,43.13-8.38c5.74,0.47,11.56-0.04,17.34,0.19
				c11.53,0.46,22.65,2.91,32.53,9.02c6.28,3.88,11.97,8.71,17.92,13.12c1.54,7.71,6.55,12.85,12.73,17.1
				c5.09,3.5,10.07,7.19,15.32,10.43c4.51,2.79,8.21,6.06,9.75,11.3c0,2.26,0,4.52,0,6.78
				C631.57,484.91,628.18,484.91,624.79,484.91z"/>
			<path class="st5" d="M597.17,439.29c-5.95-4.41-11.64-9.24-17.92-13.12c-9.88-6.11-21-8.55-32.53-9.02
				c-5.77-0.23-11.59,0.29-17.34-0.19c-15.21-1.25-29.12,3.67-43.13,8.38c-13.57,4.55-26.3,10.77-38.16,18.74
				c-2.41,1.62-4.26,4.09-6.37,6.16c0,0,0.03-0.08,0.03-0.08c-0.59,0.31-1.18,0.62-1.76,0.92c-9.76,7.39-19.46,14.85-29.31,22.12
				c-3.39,2.5-6.94,4.95-10.77,6.61c-2.42,1.05-5.68,1.28-8.22,0.6c-1.88-0.51-2.12-7.95-0.28-10.19
				c4.65-5.64,9.08-11.63,14.54-16.38c11.58-10.08,23.77-19.46,35.71-29.12c8.65-1.62,15.19-14.2,11-21.79
				c-1.07-1.94-3.57-4.05-5.63-4.31c-6.88-0.86-13.61,0.09-20.08,3.18c-4.12,1.97-8.71,2.93-13.09,4.35c0.02-3.29-0.71-6.8,0.2-9.82
				c2.71-8.98,6.98-17.27,13.56-24.13c6.62-6.91,14.64-9.92,24.16-7.94c3.47,0.72,5.96-0.45,8.38-2.73
				c9.66-9.09,19.3-18.19,29.11-27.11c13.25-12.05,28.5-14.57,45.22-8.73c2.13,0.75,3.91,2.52,5.85,3.81
				c-6.04,0.24-12.17-0.09-18.1,0.83c-11.37,1.77-19.88,8.86-27.72,16.69c-1.75,1.74-2.72,4.26-4.05,6.43
				c0.35,0.41,0.71,0.82,1.06,1.23c9.28-2.51,17.76-7.06,26.34-11.34c1.45,0.18,2.94,0.67,4.34,0.49
				c18.45-2.32,27.29,10.2,30.29,22.88c1.22,5.14-3.89,8.16-10.04,6.21c-2.04-2.27-3.75-5-6.18-6.73
				c-9.51-6.77-20.4-8.18-31.79-7.64c-11.5,0.54-20.45,5.76-27.43,14.53c-1.05,1.32-0.61,3.82-0.86,5.78
				c-2.2,10.41,0.14,12.67,10.07,9.42c14.37-4.7,28.74-8.97,44.17-8.55c22.07,0.61,39.89,9.84,54.6,25.77
				c1.94,2.1,3.34,2.83,5.99,0.86c6.02-4.49,11.69-2.56,14.28,4.52c2.64,7.21,0.06,14.05-6.6,18.13c-0.93,0.57-1.71,2.06-1.8,3.19
				C596.75,434.53,597.06,436.92,597.17,439.29z"/>
			<path class="st6" d="M476.24,378.84c0.25-1.96-0.19-4.46,0.86-5.78c6.98-8.77,15.93-13.99,27.43-14.53
				c11.39-0.54,22.28,0.87,31.79,7.64c2.43,1.73,4.14,4.46,6.18,6.73c-2.89-0.37-5.9-0.34-8.64-1.18
				c-10.91-3.33-21.87-6.33-33.43-5.46C490.61,367,482.29,370.79,476.24,378.84z"/>
			<path class="st7" d="M413.89,406.15c4.38-1.41,8.97-2.38,13.09-4.35c6.47-3.09,13.19-4.04,20.08-3.18
				c2.06,0.26,4.56,2.37,5.63,4.31c4.18,7.59-2.35,20.17-11,21.79c1.24-1.7,2.54-3.35,3.72-5.09c2.79-4.13,1.53-7.11-3.46-7.59
				c-7.29-0.7-14.65-0.81-21.9-1.79C417.84,409.95,415.93,407.58,413.89,406.15z"/>
			<path class="st7" d="M517.9,343.33c-8.58,4.29-17.06,8.83-26.34,11.34c-0.35-0.41-0.71-0.82-1.06-1.23
				c1.33-2.16,2.3-4.69,4.05-6.43c7.85-7.83,16.36-14.92,27.72-16.69c5.93-0.92,12.06-0.59,18.1-0.83c1.83,2.74,0.23,4.17-2.11,5.1
				c-4.93,1.97-9.94,3.74-14.85,5.75C521.48,341.13,519.73,342.32,517.9,343.33z"/>
			<path class="st4" d="M439.99,451.09c0.59-0.31,1.18-0.62,1.76-0.92C441.16,450.48,440.58,450.78,439.99,451.09z"/>
		</g>
	</g>
</g>
<g id="Layer_1" class="st3">
	<g class="st8">
		<g>
			<path class="st9" d="M0.83,1000.83c0-333.33,0-666.67,0-1000c333.33,0,666.67,0,1000,0c0,333.33,0,666.67,0,1000
				C667.5,1000.83,334.17,1000.83,0.83,1000.83z M435.82,426.57c-0.58,0.31-1.15,0.61-1.73,0.92c-1.84,1.53-3.66,3.09-5.52,4.6
				c-11.67,9.5-23.59,18.7-34.88,28.62c-4.33,3.81-7.59,9.04-10.54,14.09c-0.97,1.67-0.21,5.56,1.21,7.06
				c1.24,1.32,4.77,1.48,6.84,0.8c3.2-1.05,6.26-2.94,8.96-5.02c5.45-4.21,10.46-8.97,15.93-13.15c4.77-3.64,9.93-6.78,14.92-10.13
				c3.96-1.95,7.94-3.86,11.88-5.85c14.26-7.21,29.14-12.01,45.35-10.97c8.36,0.53,16.73,1.23,25,2.5
				c11.48,1.76,22.48,5.13,32.27,11.76c6.3,4.27,12.79,8.26,19.18,12.39c5.32,3.44,11.08,5.04,17.37,3.83
				c9.1-1.74,17.08-0.7,22.39,8.05c0.93,1.53,1.93,3.12,3.25,4.29c2.22,1.98,4.51,4.19,7.19,5.25c1.93,0.76,5.36,0.66,6.61-0.58
				c1.4-1.39,2.15-5,1.31-6.75c-1.61-3.34-4.11-6.57-7.02-8.88c-4.24-3.37-9.16-5.9-13.8-8.77c-6.86-4.24-12.36-9.7-15.51-17.27
				c-0.23-3.78-0.46-7.55-0.64-10.51c2.46-1.5,4.47-2.24,5.79-3.63c4-4.2,4.83-13.11,1.67-18.02c-0.97-1.5-2.67-2.78-4.32-3.54
				c-5.03-2.34-8.21,0.84-11.17,4.62c-0.63-0.76-1.07-1.27-1.48-1.8c-10.08-12.95-23.32-20.99-39.03-25.3
				c-11.63-3.2-23.34-1.38-35.02-0.76c-2.96,0.16-5.95,0.98-8.8,1.9c-6.55,2.11-13.01,4.5-19.53,6.71c-4.62,1.57-6.47,0.2-6.53-4.71
				c-0.02-1.67,0.02-3.33,0.03-5c0.62-1.05,1.07-2.26,1.89-3.12c5.86-6.15,13.05-9.64,21.56-10.16c13.17-0.79,25.68,1.92,37.74,7.13
				c1.01,0.44,2.54-0.33,3.82-0.54c5.49,2.06,10.66-0.54,10.41-5.22c-0.51-9.52-10.25-21.43-19.81-23.06
				c-5.04-0.86-10.36-0.07-15.56-0.02c0.9-0.78,1.67-1.88,2.71-2.3c5.97-2.39,12.03-4.52,17.98-6.94c2.05-0.83,4.66-1.82,2.81-5.04
				c-1.3-1.14-2.42-2.63-3.92-3.38c-13.45-6.72-33.24-3.76-44.34,6.49c-10.59,9.77-21.14,19.58-31.85,29.21
				c-1.46,1.31-4.14,2.81-5.62,2.32c-9.91-3.33-17.71,0.55-24.54,6.95c-8.09,7.58-12.29,17.57-15.33,27.98
				c-0.54,1.85,0.82,4.25,1.3,6.39c0.89,0.83,1.66,2.2,2.68,2.41c3.87,0.79,7.8,1.37,11.73,1.72c4.79,0.42,9.66,0.16,14.38,0.89
				c3.94,0.61,4.75,3.17,2.87,6.76c-0.85,1.63-1.76,3.23-2.64,4.84L435.82,426.57z M458.34,580.67c0.27-0.22,0.54-0.45,0.82-0.67
				c0-6.39-0.01-12.77-0.01-19.16c-0.27-0.24-0.55-0.48-0.82-0.72c-12.94,0-25.89,0-39.23,0c0-4.06,0-7.62,0-11.18
				c0.26-0.22,0.51-0.45,0.77-0.67c10.79-0.36,21.57-0.71,32.39-1.07c0-1.95,0-3.71,0-5.47c0-4.53,0-9.06,0-14
				c-11.34,0-22.48,0-33.53,0c0-4.38,0-8.34,0-12.72c13.27,0,26.24,0,39.39,0c0-6.73,0-13.04,0-19.52c-20.83,0-41.42,0-62.36,0
				c0,1.78,0,3.29,0,4.79c0,13.6-0.01,27.2,0.01,40.8c0,3.24,0.08,6.49,0.12,9.73c-0.28,1.18-0.79,2.36-0.8,3.54
				c-0.03,8.54,0.05,17.09,0.09,25.63c0.22,0.22,0.44,0.45,0.67,0.67C416.67,580.67,437.5,580.67,458.34,580.67z M472.66,580
				c0.22,0.22,0.44,0.45,0.67,0.67c6.67,0,13.34,0,20.01,0c0.22-0.22,0.45-0.44,0.67-0.67c0-12.73,0-25.47,0-38.2
				c0.46-0.11,0.91-0.22,1.37-0.32c0.95,1.1,1.96,2.16,2.83,3.32c8.18,10.97,16.38,21.92,24.46,32.96c1.62,2.21,3.33,3.26,6.16,3.1
				c5.1-0.28,10.23-0.15,15.35-0.19c0.23-0.22,0.45-0.45,0.68-0.67c0.04-4.57,0.16-9.15,0.09-13.72
				c-0.11-8.16-0.34-16.32-0.52-24.48c0.19-8.21,0.58-16.42,0.52-24.63c-0.05-7.09-0.62-14.18-0.97-21.58c-6.03,0-12.81,0-19.59,0
				c-1.04,13.58,0.99,26.95-1.36,40.88c-1.36-1.29-2.16-1.85-2.7-2.6c-7.64-10.61-15.19-21.28-22.88-31.85
				c-1.66-2.29-3.54-5.81-5.68-6.09c-6.19-0.82-12.56-0.29-18.62-0.29c0,15.18,0,30.12,0,45.06c-0.19,0.64-0.54,1.28-0.54,1.93
				C472.59,555.08,472.63,567.54,472.66,580z M579.38,550.07c0,10.2,0,20.39,0,30.52c8.16,0,15.87,0,24.22,0
				c-0.33-7.25-0.66-14.26-0.98-21.27c0.04-8.13,0.1-16.26,0.13-24.39c0.02-6.02,0-12.04,0-18.24c7.09,0,13.74,0.09,20.39-0.08
				c1.19-0.03,3.34-1.09,3.37-1.74c0.25-6.44,0.15-12.89,0.15-19.29c-23.95,0-47.28,0-70.86,0c0,5.48,0,10.6,0,15.72
				c0,5.39,0,5.39,5.4,5.4c6.17,0,12.35,0,18.76,0c0,2.35,0.03,4,0,5.65C579.77,531.58,579.57,540.82,579.38,550.07z M371.72,555.79
				c-1.14-2.48-2.17-5.02-3.44-7.43c-1.03-1.95-1.53-3.3,1.01-4.64c7.09-3.73,11.11-10.02,12.12-17.69
				c2.18-16.49-6.59-30.64-24.92-30.8c-13.61-0.12-27.22-0.05-40.83-0.04c-0.92,0-1.84,0.21-2.88,0.34c0,5.78,0.01,11.32,0,16.85
				c-0.02,12.48-0.12,24.96-0.06,37.44c0.03,6.77,0.32,13.54,0.5,20.31c-0.3,3.46-0.6,6.91-0.89,10.38c8.24,0,15.74,0,23.05,0
				c0-5.32,0-10.37,0-15.43c0.25-5.18,0.5-10.37,0.75-15.5c11.39-0.84,8.85-1.06,12.57,7.31c0.62,1.39,1.63,2.6,2.46,3.89
				c-0.08,0.41-0.33,0.89-0.2,1.22c2.26,5.92,4.53,11.85,6.92,17.72c0.22,0.54,1.33,1,2.03,1.01c7.7,0.07,15.41,0.04,23.79,0.04
				c-3.45-7.82-6.59-15.03-9.82-22.19C373.41,557.56,372.46,556.73,371.72,555.79z M632.08,495.54c0.65,1.52,0.96,2.45,1.42,3.28
				c6.49,11.75,12.74,23.65,19.6,35.17c4.85,8.14,8.19,16.28,7.21,26.07c-0.67,6.69-0.13,13.5-0.13,20.58
				c6.73,0,12.95-0.12,19.16,0.05c2.89,0.08,3.91-0.85,3.85-3.79c-0.16-7.77-0.22-15.55,0.03-23.32c0.1-3.24,0.35-6.82,1.77-9.61
				c5.36-10.49,11.24-20.71,16.9-31.05c3.09-5.65,6.11-11.33,9.4-17.44c-7.64,0-14.53,0.1-21.42-0.05c-2.49-0.06-3.71,0.9-4.71,3.08
				c-2.42,5.3-5.06,10.49-7.67,15.7c-1.56,3.13-3.22,6.22-5.29,10.2c-1.21-2.2-1.91-3.35-2.5-4.55
				c-3.42-6.97-6.75-13.98-10.28-20.89c-0.69-1.35-2.1-3.25-3.23-3.29C648.38,495.4,640.52,495.54,632.08,495.54z"/>
			<path class="st10" d="M467.47,383.32c-0.01,1.67-0.06,3.33-0.03,5c0.06,4.92,1.91,6.28,6.53,4.71c6.52-2.21,12.98-4.6,19.53-6.71
				c2.85-0.92,5.84-1.75,8.8-1.9c11.68-0.62,23.39-2.43,35.02,0.76c15.71,4.32,28.95,12.35,39.03,25.3c0.41,0.53,0.85,1.03,1.48,1.8
				c2.96-3.78,6.14-6.96,11.17-4.62c1.65,0.77,3.35,2.04,4.32,3.54c3.16,4.92,2.33,13.82-1.67,18.02c-1.32,1.39-3.33,2.13-5.79,3.63
				c0.18,2.95,0.41,6.73,0.64,10.51c-12.97-15.54-30.17-22.07-49.83-23.37c-0.55-0.01-1.11-0.03-1.66-0.04
				c-4.42-0.03-8.84-0.07-13.26-0.1c-0.3-0.39-0.6-0.78-0.91-1.18c-0.3,0.39-0.61,0.78-0.91,1.17c-8.11,0.68-16.58,0.11-24.27,2.28
				c-21.35,6.03-41.86,14.33-60.13,27.3c-1.78,1.26-3.02,3.27-4.51,4.94c-4.99,3.36-10.15,6.49-14.92,10.13
				c-5.47,4.17-10.48,8.94-15.93,13.15c-2.7,2.08-5.76,3.97-8.96,5.02c-2.07,0.68-5.6,0.52-6.84-0.8c-1.42-1.51-2.18-5.39-1.21-7.06
				c2.94-5.05,6.21-10.28,10.54-14.09c11.29-9.92,23.22-19.12,34.88-28.62c1.86-1.51,3.68-3.06,5.52-4.6
				c0.58-0.31,1.15-0.61,1.73-0.92c0,0-0.07,0.04-0.07,0.04c5.74-2.58,9.07-7.17,10.04-13.19c1.31-8.11-4.76-13.98-12.91-12.39
				c-4.56,0.89-8.96,2.7-13.38,4.23c-4.29,1.49-8.51,3.15-12.76,4.73c-0.48-2.15-1.84-4.55-1.3-6.39
				c3.04-10.41,7.25-20.4,15.33-27.98c6.83-6.4,14.63-10.28,24.54-6.95c1.48,0.5,4.16-1.01,5.62-2.32
				c10.71-9.63,21.26-19.44,31.85-29.21c11.11-10.25,30.9-13.21,44.34-6.49c1.5,0.75,2.62,2.24,3.92,3.38
				c-11.07-0.85-21.83-0.03-31.46,6.22c-7.04,4.57-13.96,9.34-18.15,18.42c2.45-0.59,4.17-0.77,5.68-1.41
				c6.84-2.91,13.62-5.96,20.42-8.95c5.2-0.05,10.52-0.84,15.56,0.02c9.57,1.64,19.3,13.54,19.81,23.06
				c0.25,4.69-4.92,7.28-10.41,5.22c-1.23-1.73-2.12-3.92-3.74-5.11c-9.9-7.3-21.16-9.96-33.31-8.96
				c-11.05,0.91-20.12,5.81-26.9,14.53C467.41,378.57,467.79,381.22,467.47,383.32z"/>
			<path class="st11" d="M313.23,570.15c-0.17-6.77-0.47-13.54-0.5-20.31c-0.06-12.48,0.04-24.96,0.06-37.44
				c0.01-5.54,0-11.08,0-16.85c1.04-0.13,1.96-0.34,2.88-0.34c13.61-0.01,27.22-0.08,40.83,0.04c18.32,0.16,27.09,14.31,24.92,30.8
				c-1.01,7.66-5.03,13.96-12.12,17.69c-2.54,1.34-2.04,2.69-1.01,4.64c1.27,2.41,2.31,4.94,3.44,7.43
				c-6.85,1.67-13.71,3.35-20.56,5.02c-0.83-1.29-1.84-2.51-2.46-3.89c-3.72-8.38-1.18-8.16-12.57-7.31
				c-0.25,5.14-0.5,10.32-0.75,15.5c-1.33,0.15-2.7,0.16-4,0.48C325.32,567.06,319.28,568.62,313.23,570.15z M336.18,530.67
				c5.38,0,10.35,0.26,15.27-0.08c4.06-0.28,6.56-3.45,6.81-7.62c0.22-3.74-1.83-7.61-4.76-7.77c-5.72-0.31-11.46-0.09-17.32-0.09
				C336.18,520.46,336.18,525.26,336.18,530.67z"/>
			<path class="st12" d="M431.01,454.37c1.49-1.66,2.73-3.67,4.51-4.94c18.27-12.97,38.79-21.27,60.13-27.3
				c7.69-2.17,16.15-1.6,24.27-2.28c0.61,0,1.21,0,1.82,0c4.42,0.03,8.84,0.07,13.26,0.1c0.55,0.01,1.11,0.03,1.66,0.04
				c19.65,1.3,36.85,7.82,49.83,23.37c3.14,7.57,8.64,13.03,15.51,17.27c4.64,2.87,9.55,5.4,13.8,8.77c2.9,2.31,5.41,5.54,7.02,8.88
				c0.84,1.74,0.09,5.36-1.31,6.75c-1.25,1.24-4.69,1.35-6.61,0.58c-2.68-1.06-4.96-3.27-7.19-5.25c-1.32-1.17-2.32-2.76-3.25-4.29
				c-5.31-8.75-13.29-9.79-22.39-8.05c-6.29,1.21-12.05-0.39-17.37-3.83c-6.39-4.14-12.88-8.12-19.18-12.39
				c-9.79-6.64-20.79-10-32.27-11.76c-8.27-1.27-16.65-1.97-25-2.5c-16.21-1.03-31.08,3.77-45.35,10.97
				C438.95,450.51,434.97,452.42,431.01,454.37z"/>
			<path class="st11" d="M632.08,495.54c8.45,0,16.3-0.14,24.14,0.15c1.14,0.04,2.54,1.95,3.23,3.29
				c3.53,6.91,6.86,13.92,10.28,20.89c0.59,1.2,1.28,2.35,2.5,4.55c2.07-3.98,3.72-7.07,5.29-10.2c2.6-5.21,5.25-10.4,7.67-15.7
				c1-2.18,2.22-3.14,4.71-3.08c6.89,0.16,13.78,0.05,21.42,0.05c-3.29,6.11-6.31,11.79-9.4,17.44
				c-5.65,10.34-11.54,20.56-16.9,31.05c-1.43,2.79-1.67,6.37-1.77,9.61c-0.24,7.77-0.18,15.55-0.03,23.32
				c0.06,2.94-0.96,3.87-3.85,3.79c-6.21-0.18-12.44-0.05-19.16-0.05c0-7.09-0.54-13.9,0.13-20.58c0.98-9.78-2.36-17.93-7.21-26.07
				c-6.86-11.53-13.11-23.42-19.6-35.17C633.04,497.99,632.73,497.06,632.08,495.54z"/>
			<path class="st0" d="M395.87,550.83c-0.04-3.24-0.12-6.49-0.12-9.73c-0.01-13.6-0.01-27.2-0.01-40.8c0-1.51,0-3.01,0-4.79
				c20.94,0,41.54,0,62.36,0c0,6.48,0,12.78,0,19.52c-13.15,0-26.12,0-39.39,0c0,4.38,0,8.33,0,12.72c11.05,0,22.19,0,33.53,0
				c0,4.94,0,9.47,0,14c-6.17,0.44-12.42,0.35-18.48,1.42C421.09,545.4,408.5,548.24,395.87,550.83z"/>
			<path class="st11" d="M473.13,540.69c0-14.94,0-29.88,0-45.06c6.07,0,12.43-0.53,18.62,0.29c2.14,0.28,4.02,3.8,5.68,6.09
				c7.68,10.57,15.24,21.24,22.88,31.85c0.54,0.75,1.34,1.31,2.7,2.6c2.35-13.93,0.32-27.3,1.36-40.88c6.78,0,13.56,0,19.59,0
				c0.35,7.41,0.92,14.49,0.97,21.58c0.06,8.21-0.33,16.42-0.52,24.63c-7.95-0.63-15.9-1.33-23.86-1.87
				C504.73,538.84,488.9,538.16,473.13,540.69z"/>
			<path class="st13" d="M579.38,550.07c0.19-9.24,0.39-18.48,0.58-27.73c0.03-1.65,0-3.3,0-5.65c-6.41,0-12.59,0-18.76,0
				c-5.39,0-5.39,0-5.4-5.4c0-5.12,0-10.24,0-15.72c23.58,0,46.91,0,70.86,0c0,6.4,0.1,12.85-0.15,19.29
				c-0.03,0.65-2.18,1.71-3.37,1.74c-6.64,0.17-13.29,0.08-20.39,0.08c0,6.2,0.02,12.22,0,18.24c-0.03,8.13-0.08,16.26-0.13,24.39
				c-3.65-1.6-7.26-3.31-10.96-4.78C587.61,552.93,583.47,551.55,579.38,550.07z"/>
			<path class="st14" d="M473.13,540.69c15.77-2.53,31.6-1.85,47.42-0.77c7.96,0.54,15.91,1.24,23.86,1.87
				c0.18,8.16,0.4,16.32,0.52,24.48c0.06,4.57-0.06,9.15-0.09,13.72c-0.23,0.22-0.45,0.45-0.68,0.67
				c-5.12,0.04-10.24-0.09-15.35,0.19c-2.84,0.15-4.55-0.89-6.16-3.1c-8.08-11.04-16.28-22-24.46-32.96
				c-0.87-1.16-1.88-2.22-2.83-3.32c-0.46,0.11-0.91,0.22-1.37,0.32c0,12.73,0,25.47,0,38.2c-0.22,0.22-0.45,0.44-0.67,0.67
				c-6.67,0-13.34,0-20.01,0c-0.22-0.22-0.44-0.45-0.67-0.67c-0.03-12.46-0.07-24.93-0.07-37.39
				C472.59,541.97,472.94,541.33,473.13,540.69z"/>
			<path class="st15" d="M395.87,550.83c12.63-2.59,25.21-5.43,37.9-7.67c6.05-1.07,12.31-0.98,18.48-1.42c0,1.76,0,3.52,0,5.47
				c-10.82,0.36-21.61,0.71-32.39,1.07c-0.26,0.22-0.51,0.45-0.77,0.67c0,3.56,0,7.12,0,11.18c13.34,0,26.28,0,39.23,0
				c0.27,0.24,0.55,0.48,0.82,0.72c0,6.39,0.01,12.77,0.01,19.16c-0.27,0.22-0.54,0.45-0.82,0.67c-20.84,0-41.67,0-62.51,0
				c-0.22-0.22-0.44-0.45-0.67-0.67c-0.04-8.54-0.12-17.09-0.09-25.63C395.08,553.19,395.6,552.01,395.87,550.83z"/>
			<path class="st12" d="M579.38,550.07c4.1,1.48,8.23,2.86,12.28,4.47c3.7,1.47,7.31,3.18,10.96,4.78
				c0.32,7.01,0.64,14.02,0.98,21.27c-8.35,0-16.06,0-24.22,0C579.38,570.46,579.38,560.26,579.38,550.07z"/>
			<path class="st4" d="M351.16,560.81c6.85-1.67,13.71-3.35,20.56-5.02c0.73,0.93,1.68,1.76,2.16,2.81
				c3.24,7.16,6.38,14.37,9.82,22.19c-8.38,0-16.09,0.03-23.79-0.04c-0.7-0.01-1.81-0.47-2.03-1.01c-2.4-5.87-4.66-11.79-6.92-17.72
				C350.84,561.7,351.09,561.22,351.16,560.81z"/>
			<path class="st16" d="M467.47,383.32c0.32-2.1-0.06-4.76,1.08-6.22c6.78-8.72,15.84-13.62,26.9-14.53
				c12.15-1,23.41,1.66,33.31,8.96c1.62,1.2,2.51,3.38,3.74,5.11c-1.29,0.21-2.82,0.98-3.82,0.54c-12.06-5.21-24.58-7.92-37.74-7.13
				c-8.51,0.51-15.7,4-21.56,10.16C468.54,381.06,468.09,382.27,467.47,383.32z"/>
			<path class="st4" d="M406.73,410c4.25-1.58,8.48-3.25,12.76-4.73c4.42-1.53,8.82-3.34,13.38-4.23
				c8.15-1.59,14.22,4.28,12.91,12.39c-0.97,6.02-4.31,10.61-10.04,13.19c0.88-1.61,1.79-3.21,2.64-4.84
				c1.89-3.59,1.07-6.15-2.87-6.76c-4.72-0.74-9.6-0.47-14.38-0.89c-3.93-0.35-7.86-0.93-11.73-1.72
				C408.39,412.2,407.62,410.83,406.73,410z"/>
			<path class="st4" d="M507.53,348.32c-6.8,3-13.59,6.04-20.42,8.95c-1.51,0.64-3.22,0.82-5.68,1.41
				c4.19-9.08,11.11-13.86,18.15-18.42c9.62-6.24,20.39-7.07,31.46-6.22c1.84,3.22-0.76,4.2-2.81,5.04
				c-5.95,2.42-12.02,4.55-17.98,6.94C509.2,346.44,508.43,347.54,507.53,348.32z"/>
			<path class="st1" d="M313.23,570.15c6.05-1.53,12.09-3.09,18.16-4.57c1.29-0.32,2.66-0.33,4-0.48c0,5.05,0,10.1,0,15.43
				c-7.31,0-14.81,0-23.05,0C312.63,577.07,312.93,573.61,313.23,570.15z"/>
			<path class="st4" d="M435.82,426.57c-0.58,0.31-1.15,0.61-1.73,0.92C434.67,427.19,435.24,426.88,435.82,426.57z"/>
			<path class="st17" d="M419.09,548.95c0.26-0.22,0.51-0.45,0.77-0.67C419.6,548.5,419.35,548.72,419.09,548.95z"/>
			<path class="st17" d="M459.14,560.84c-0.27-0.24-0.55-0.48-0.82-0.72C458.59,560.37,458.87,560.61,459.14,560.84z"/>
			<path class="st18" d="M395.16,580c0.22,0.22,0.44,0.45,0.67,0.67C395.61,580.45,395.39,580.22,395.16,580z"/>
			<path class="st18" d="M458.34,580.67c0.27-0.22,0.54-0.45,0.82-0.67C458.88,580.22,458.61,580.45,458.34,580.67z"/>
			<path class="st18" d="M472.66,580c0.22,0.22,0.44,0.45,0.67,0.67C473.11,580.45,472.88,580.23,472.66,580z"/>
			<path class="st18" d="M493.34,580.67c0.22-0.22,0.45-0.44,0.67-0.67C493.78,580.23,493.56,580.45,493.34,580.67z"/>
			<path class="st19" d="M544.17,580.68c0.23-0.22,0.45-0.45,0.68-0.67C544.62,580.23,544.39,580.45,544.17,580.68z"/>
			<path class="st20" d="M521.74,419.86c-0.61,0-1.21,0-1.82,0c0.3-0.39,0.61-0.78,0.91-1.18
				C521.14,419.08,521.44,419.47,521.74,419.86z"/>
			<path class="st20" d="M536.67,420c-0.55-0.01-1.11-0.03-1.66-0.04C535.56,419.98,536.11,419.99,536.67,420z"/>
			<path class="st21" d="M336.18,530.67c0-5.41,0-10.21,0-15.57c5.86,0,11.61-0.22,17.32,0.09c2.93,0.16,4.98,4.03,4.76,7.77
				c-0.25,4.18-2.75,7.35-6.81,7.62C346.53,530.93,341.56,530.67,336.18,530.67z"/>
		</g>
	</g>
</g>
</svg>
